<?xml version="1.0" encoding="utf-8"?>
<svg version="1.1" id="Layer_1" xmlns="http://www.w3.org/2000/svg" xmlns:xlink="http://www.w3.org/1999/xlink" x="0px" y="0px"
	 viewBox="0 0 1883.827 1681.434" enable-background="new 0 0 1883.827 1681.434" xml:space="preserve">
<g>
	<path fill="none" d="M373.331,1091.695c143.719-71.408,660.612-397.47,1022.353-614.559
		C1032.903,692.448,503.431,997.188,373.331,1091.695z"/>
	<path fill="none" d="M413.376,1118.405c127.818-67.286,661.376-394.25,636.057-379.543
		C780.692,895.099,513.133,1050.642,413.376,1118.405z"/>
	<path fill="none" d="M1094.991,596.956c-318.58,185.458-658.546,383.352-756.919,456.871
		c92.184-46.435,346.766-201.725,608.542-361.344C1345.057,449.53,1491.102,366.363,1094.991,596.956z"/>
	<path fill="none" d="M1180.06,857.162c262.526-153.272,518.193-302.572,609.294-365.961
		c-110.163,55.814-427.338,249.744-627.898,371.801C849.364,1052.936,862.571,1042.522,1180.06,857.162z"/>
	<path fill="none" d="M430.036,1164.323c132.127-62.269,663.432-398.529,1026.85-616.607
		C1089.751,763.963,545.189,1074.135,430.036,1164.323z"/>
	<path fill="none" d="M1667.781,235.83c-128.032,65.868-474.806,277.261-785.847,465.503
		C1192.209,519.983,1547.843,315.687,1667.781,235.83z"/>
	<path fill="none" d="M1107.581,372.319C764.672,573.207,332.688,820.188,222.244,901.668
		C345.058,842.398,764.18,580.97,1107.581,372.319z"/>
	<path fill="none" d="M876.582,487.272c263.912-153.671,539.865-314.232,628.785-377.804
		c-109.318,53.621-450.719,262.67-654.977,387.076C493.698,713.789,512.466,699.288,876.582,487.272z"/>
	<path fill="none" d="M193.983,808.112c93.496-49.849,1120.218-661.965,515.426-308.166
		C510.127,616.523,288.638,745.895,193.983,808.112z"/>
	<path fill="none" d="M1602.76,159.824c-115.592,58.426-467.59,277.317-788.455,473.132
		C1132.594,446.876,1497.087,236.31,1602.76,159.824z"/>
	<path fill="none" d="M990.927,390.975c-303.309,179.136-660.28,384.949-780.16,465.046
		C338.45,790.227,685.886,576.318,990.927,390.975z"/>
	<path fill="none" d="M1295.225,761.617c-321.281,186.658-687.932,395.755-793.702,471.33
		C618.187,1175.598,977.508,954.552,1295.225,761.617z"/>
	<path fill="none" d="M714.242,632.687c341.723-199.072,745.877-428.839,848.631-504.059
		C1447.058,181.643,1053.666,425.485,714.242,632.687z"/>
	<path fill="none" d="M1768.299,659.006c-120.596,63.862-438.602,259.834-713.127,426.248
		C1331.411,923.326,1655.324,736.084,1768.299,659.006z"/>
	<path fill="none" d="M663.116,1341.445c172.366-95.608,871.424-528.474,137.79-85.69
		C759.087,1280.995,703.71,1314.779,663.116,1341.445z"/>
	<path fill="none" d="M1408.124,743.587C1073,940.404,647.942,1184.269,535.369,1266.066
		C660.79,1204.807,1080.088,942.542,1408.124,743.587z"/>
	<path fill="none" d="M723.705,1415.163c88.818-46.087,289.8-170.042,477.332-285.597
		C1594.82,886.935,787.102,1372.362,723.705,1415.163z"/>
	<path fill="none" d="M1697.493,852.489c-93.094,48.549-297.08,174.335-487.475,291.652
		C697.883,1459.711,1668.513,871.61,1697.493,852.489z"/>
	<path fill="none" d="M578.741,1288.134c169.595-88.769,1197.023-725.297,180.088-113.094
		C709.297,1204.857,625.911,1255.472,578.741,1288.134z"/>
	<path fill="none" d="M1792.458,540.818c-116.34,56.096-466.435,272.97-772.811,460.19
		C1328.033,820.712,1686.692,614.614,1792.458,540.818z"/>
	<path fill="#D10E1C" d="M708.596,73.15c-6.138-10.627-22.52-2.065-48.343,11.631c-100.558,53.332-374.136,226.52-518.041,311.082
		C465.56,180.871,679.373,67.016,628.047,53.96c-12.27-3.119-57.008,21.545-305.856,173.767
		C40.68,399.936,456.696,143.161,549.85,74.501c17.084-12.59,27.077-20.274,22.021-29.032
		c-11.149-19.31-61.182,25.398-389.915,220.001C457.391,75.886,490.537,64.17,481.328,48.219
		c-9.208-15.947-34.311,5.917-276.119,151.713C341.577,92.626,348.319,90.053,342.287,79.604
		c-5.959-10.313-16.267-2.126-67.783,29.221c-18.971,11.544-44.648,27.167-50.644,29.93c-5.919,0.925-9.099,7.527-6.089,12.74
		c5.546,9.606,17.196,0.994,29.42-6.206c-123.07,96.436-126.993,98.459-121.377,108.186c7.717,13.363,20.28,2.392,220.422-119.592
		C97.28,301.76,81.17,310.959,88.884,324.321c9.058,15.684,31.47-1.455,334.577-185.446
		C124.972,332.781,38.712,379.147,75.421,388.488c20.022,5.092,321.138-190.481,487.189-285.425
		C425.561,197.014,99.517,396.256,54.964,437.12c-13.415,12.308-5.976,20.06-0.466,21.46
		c23.42,5.953,337.577-197.893,541.716-317.819c-68.327,43.734-162.042,101.87-253.786,159.282
		C698.862,94.256,717.887,89.243,708.596,73.15z"/>
	<path fill="#FF5A00" d="M1156.512,79.619c-23.244,13.687-69.993,42.902-78.701,46.964c-9.193,1.528-9.575,14.508-0.634,16.792
		c3.955,1.01,6.245,0.112,21.356-8.777c-31.93,25.268-66.479,52.144-92.783,73.174c115.985-66.964,96.226-53.292,142.309-90.884
		c34.993-28.543,41.67-34.765,36.951-42.939C1179.432,64.294,1167.574,73.107,1156.512,79.619z"/>
	<path fill="#FF5A00" d="M902.835,233.199C883.316,199.39,414.122,517.711,149.03,666.56
		C320.388,554.314,803.397,278.169,869.428,219.25c17.043-15.204,8.39-23.362,2.968-24.741
		c-26.703-6.803-550.186,332.652-746.577,438.139c381.695-258.638,773.872-459.387,711.06-475.298
		c-31.485-7.977-530.098,317.787-726.063,425.566c156.486-106.342,621.787-380.178,684.159-435.994
		c15.987-14.308,8.035-22.419,2.338-23.877c-26.578-6.792-444.326,260.924-665.345,388.175
		c166.707-110.442,561.047-345.812,615.759-393.615c15.359-13.42,7.431-21.361,1.806-22.795
		c-27.369-6.967-422.112,248.444-624.078,364.388C268.3,362.8,603.531,160.976,687.325,100.917
		C524.44,194.959,232.826,359.161,80.848,469.342c-25.522,18.503-37.08,28.072-31.56,37.632
		c6.441,11.155,20.883,4.991,123.661-55.641c138.121-81.482,371.649-227.377,494.809-298.348
		C383.031,339.912,30.726,535.998,46.939,564.08c16.617,28.777,284.59-165.305,682.691-390.864
		C576.887,275.561,189.492,504.991,80.424,583.2c-25.589,18.35-36.212,27.382-30.805,36.749c6.319,10.944,23.715,2.371,54.805-14.11
		C230.533,538.99,589.08,310.421,754.591,215.178C305.086,509.523,12.184,658.417,70.871,673.347
		c33.905,8.633,481.392-280.112,719.873-419.402C524.878,426.627,60.953,678.254,78.708,709.008
		c8.834,15.301,27.436,8.071,405.742-224.774c137.461-84.606,286.511-176.421,362.429-217.373
		c-136.627,93.496-541.386,330.964-695.06,433.927C505.215,496.756,920.398,263.622,902.835,233.199z"/>
	<path fill="#FF5A00" d="M150.189,411.033l-38.24,22.078C122.481,427.174,135.081,419.909,150.189,411.033z"/>
	<path fill="#FDE000" d="M928.076,543.315l714.695-412.629C1624.559,117.139,1475.927,207.783,928.076,543.315z"/>
	<path fill="#FDE000" d="M965.056,252.301c6.616,11.466,13.808,6.407,172.645-90.119c72.633-44.141,162.588-98.807,177.781-104.044
		c6.829,0.527,11.517-6.844,8.071-12.815c-8.645-14.966-26.566,1.895-277.2,152.127c20.288-15.984,41.427-32.513,62.614-49.27
		l-103.217,59.592C967.015,238.742,960.318,244.097,965.056,252.301z"/>
	<path fill="#FDE000" d="M1401.269,251.57c192.835-116.07,205.618-131.313,198.246-144.081
		c-7.284-12.612-27.679-8.987-190.601,85.016c131.787-81.549,145.699-95.988,138.659-108.182
		c-7.247-12.556-23.01-11.504-245.882,119.845c180.977-112.217,193.06-129.09,185.676-141.881
		c-6.988-12.103-22.607-9.736-229.17,111.396c157.132-97.837,168.074-113.176,160.957-125.504
		c-23.028-39.896-1033.23,624.955-1268.74,732.713c70.679-52.364,296.174-189.061,405.789-255.967
		C926.343,299,936.016,289.589,928.015,275.731c-19.219-33.281-474.636,281.461-779.991,448.306
		c90.234-61.866,297.921-186.812,471.643-293.359C149.583,702.08,76.874,737.506,89.704,759.729
		c18.001,31.18,467.387-269.473,753.931-433.005c-133.63,86.771-423.942,259.151-594.824,367.911
		c-131.3,83.566-142.346,96.052-135.689,107.582c27.503,47.63,1015.474-600.325,1264.827-727.88
		c-179.282,133.147-1124.8,660.14-1234.587,748.44c-7.217,5.806-17.1,13.756-12.082,22.448
		c22.742,39.399,1076.358-640.449,1318.628-759.226C1276.735,218.357,281.828,774.443,168.242,865.27
		c-7.296,5.834-17.287,13.823-12.278,22.498c6.746,11.684,24.803,9.003,209.893-99.252
		C187.331,897.649,176.567,912.53,183.711,924.903c6.727,11.651,24.68,7.063,137.586-57.165
		c-73.962,46.998-119.384,77.725-116.886,93.385l54.308-31.355C426.402,810.856,1071.899,449.82,1401.269,251.57z M193.983,808.112
		c120.418-79.15,441.022-264.119,704.747-419.079C621.435,556.864,318.123,741.923,193.983,808.112z M1562.873,128.628
		c-93.637,68.546-479.26,289.896-624.707,374.128c-298.64,172.952-273.819,160.545-71.726,36.86
		C1166.068,356.236,1464.446,173.684,1562.873,128.628z M1505.367,109.467c-119.248,85.255-569.383,341.732-912.298,543.417
		C934.078,446.766,1373.832,173.987,1505.367,109.467z M210.767,856.021c100.205-66.951,393.752-238.109,532.522-319.488
		c258.045-151.325,351.707-209.015,98.196-54.611C589.651,635.304,319.351,800.069,210.767,856.021z M222.244,901.668
		c100.887-74.43,511.624-311.488,662.951-399.603c298.994-174.098,303.146-179.532-27.693,22.949
		C597.346,684.236,317.821,855.543,222.244,901.668z"/>
	<path fill="#019A4A" d="M1795.295,312.861c-7.479-1.908-23.903,1.155-102.663,43.778c78.561-50.786,89.608-62.771,83.315-73.672
		c-1.501-2.599-4.049-4.467-7.175-5.26c-37.557-9.544-447.252,245.588-216.472,105.634
		c202.388-122.743,209.369-133.606,202.606-145.32c-1.445-2.502-3.885-4.299-6.869-5.061
		c-26.812-6.834-248.603,126.996-214.375,106.404c188.838-113.537,196.422-124.17,189.687-135.836
		c-6.108-10.577-22.503-5.245-88.28,30.208C1372.13,375.465,516.123,912.254,313.088,1016.144
		c158.187-111.982,817.329-486.978,1160.546-695.455c211.367-128.389,220.224-141.57,213.158-153.81
		C1662.619,125.03,517.423,867.814,274.167,981.754c176.858-131.579,1228.212-715.167,1356.865-822.019
		c7.247-6.02,23.897-20.005,11.739-29.049C624.28,718.711,347.702,903.232,233.717,948.564c5.555-4.563,13.541-10.669,25.002-18.796
		l-54.308,31.355c3.804,23.845,51.188,0.935,169.766-65.903c-132.878,82.945-143.91,96.862-137.103,108.652
		c26.026,45.079,1126.267-667.134,1401.433-807.931c-205.849,143.925-1228.124,717.5-1357.516,822.838
		c-10.827,8.813-20.127,17.45-15.076,26.199c6.919,11.981,25.59,6.171,178.483-82.272
		c-138.698,86.948-153.644,103.77-146.337,116.424c23.717,41.064,1161.801-700.545,1415.723-818.219
		c-188.292,132.504-1231.567,719.692-1366.32,828.952c-11.325,9.182-21.066,18.16-15.939,27.041
		c26.243,45.467,1185.596-720.102,1411.909-815.743C1527.71,464.613,201.846,1176.987,370.665,1155.833
		c915.143-528.358,1227.961-739.755,1391.27-815.345c-75.265,53.165-306.307,188.233-389.575,237.016l428.588-247.445
		C1806.502,321.837,1801.979,314.567,1795.295,312.861z M1602.76,159.824c-109.376,79.166-512.386,311.735-788.455,473.132
		C1134.675,437.442,1487.172,218.248,1602.76,159.824z M1667.781,235.83c-120.031,79.919-476.952,284.96-785.847,465.503
		C1193.493,512.778,1539.816,301.663,1667.781,235.83z M338.072,1053.826c124.255-92.86,636.29-385.643,990.528-593.126
		C965.19,678.831,474.558,985.076,338.072,1053.826z M373.331,1091.695c130.693-94.938,660.016-399.511,1022.353-614.559
		C1033.904,694.249,517.062,1020.281,373.331,1091.695z M413.376,1118.405c115.404-78.391,500.59-300.806,640.02-381.847
		C786.716,899.143,520.738,1061.887,413.376,1118.405z"/>
	<path fill="#1D3DDD" d="M1832.015,566.005c-6.891-11.932-27.645-4.735-88.402,27.333c85.797-54.193,98.453-66,92.026-77.133
		c-7.354-12.738-32.077-5.261-172.753,75.719c173.558-105.792,180.614-117.416,173.931-128.992
		c-6.743-11.678-25.702-5.238-127.31,52.108c115.432-72.752,127.302-87.512,120.441-99.396
		c-26.049-45.11-1110.187,657.657-1364.391,785.342c169.748-128.014,1075.514-632.964,1300.213-783.959
		c46.313-31.122,58.251-42.181,52.257-52.564c-7.041-12.196-27.921-5.685-95.424,29.939
		c-86.645,45.726-202.675,116.594-110.719,61.097c64.713-39.053,176.647-107.062,189.062-125.44
		C423.553,1125.298,382.519,1161.515,396.263,1185.32c7.449,12.897,27.262,8.714,225.185-108.629
		c348.206-206.44,1012.263-628.754,1162.669-693.413c-152.88,113.521-1055.168,616.375-1296.672,781.121
		c-54.699,37.315-67.528,50.483-61.1,61.616c5.674,9.827,20.522,2.711,32.153-2.605c159.19-72.779,1147.867-699.459,1337.098-786.82
		c-201.156,154.326-1362.432,775.97-1336.117,821.55c7.175,12.426,24.115,9.501,208.955-98.379
		c-169.915,104.216-180.486,118.332-173.47,130.484c7.079,12.26,27.238,5.255,130.456-53.275
		c-92.818,58.934-103.173,70.662-96.865,81.588c24.244,42.001,1005.297-608.922,1260.554-728.912
		C1609.955,713.735,702.128,1226.243,576.537,1327.67l430.251-248.406C1783.41,618.261,1844.46,587.564,1832.015,566.005z
		 M430.036,1164.323c115.76-90.663,664.835-403.375,1026.85-616.607C1093.584,765.724,562.143,1102.063,430.036,1164.323z
		 M1789.354,491.201c-120.457,83.815-528.696,317.858-854.735,509.593C1258.771,804.654,1658.62,557.437,1789.354,491.201z
		 M501.524,1232.947c101.679-72.652,489.182-294.936,619.216-370.206c229.962-133.112,224.513-131.632,31.816-14.361
		C887.257,1009.835,602.279,1183.418,501.524,1232.947z M535.369,1266.066c104.035-75.592,520.829-316.765,653.323-394.12
		c292.752-170.918,307.928-183.063-48.108,34.983C894.3,1057.755,629.788,1219.949,535.369,1266.066z M578.741,1288.134
		c111.461-77.18,488.399-295.104,623.528-373.817C951.508,1067.778,683.038,1233.543,578.741,1288.134z M1019.647,1001.008
		c306.208-187.117,656.461-404.088,772.811-460.19C1686.697,614.611,1328.281,820.567,1019.647,1001.008z"/>
	<path fill="#1D3DDD" d="M1534.352,774.676l232.679-134.337C1706.629,671.794,1593.157,739.464,1534.352,774.676z"/>
	<path fill="#1D3DDD" d="M896.513,852.235l-525.848,303.599C411.284,1150.741,812.667,903.29,896.513,852.235z"/>
	<path fill="#4914A0" d="M1458.983,1108.887l192.283-111.015c73.753-107.746-619.537,358.846-858.776,483.752
		c154.317-106.744,727.693-437.88,879.276-542.11c35.548-24.443,44.426-32.898,39.112-42.103
		c-6.346-10.992-23.8-3.242-64.105,18.219c-175.869,93.654-737.465,452.941-893.888,533.302
		c129.728-93.481,621.039-376.325,862.933-524.768c135.531-83.171,145.379-92.943,138.926-104.12
		c-6.969-12.075-27.296-5.021-113.834,43.847c29.37-18.254,99.695-62.161,126.18-84.229c6.958-5.798,17.471-14.559,12.304-23.509
		c-23.999-41.56-868.476,520.553-1101.695,635.102c211.742-154.202,1160.648-665.982,1134.58-711.134
		c-6.429-11.138-24.246-5.866-85.715,26.61c89.876-57.024,102.635-69.375,96.088-80.715
		c-21.795-37.751-980.983,585.977-1220.455,703.67c78.534-56.955,312.048-195.488,404.59-250.421
		c-439.262,253.608-457.302,256.506-446.343,275.487c6.628,11.479,24.815,7.565,164.377-72.651
		c-128.121,79.139-136.247,89.831-129.884,100.852c21.876,37.897,966.488-585.714,1183.966-683.094
		c-148.718,114.294-1024.76,601.513-1129.724,691.917c-21.481,18.504-10.935,27-5.13,28.474
		c46.922,11.904,871.355-526.004,1089.345-636.715c-221.862,155.951-1083.06,625.689-1062.078,662.029
		c7.424,12.859,25.32,9.692,219.036-106.142c-179.174,110.796-188.919,124.601-181.908,136.745
		c7.042,12.196,28.338,5.27,177.536-82.87c226.717-133.94,619.942-382.653,765.879-460.974
		c-183.182,122.886-815.386,486.796-899.49,557.738c-6.228,5.253-15.641,13.191-10.741,21.678c2.144,3.713,6.217,5.408,10.622,5.18
		c814.599-470.309,341.548-199.928,749.831-442.376c40.885-24.278,70.129-41.013,91.018-52.483
		C1553.587,1049.12,1501.113,1082.429,1458.983,1108.887z M663.116,1341.445c103.758-68.157,350.674-212.178,466.504-279.948
		C946.531,1173.388,757.715,1288.973,663.116,1341.445z M1055.172,1085.254c274.622-166.472,592.537-362.389,713.127-426.248
		C1655.304,736.097,1331.177,923.463,1055.172,1085.254z M1697.493,852.489c-43.094,28.433-993.673,603.564-487.475,291.652
		C1400.414,1026.823,1604.402,901.037,1697.493,852.489z M723.705,1415.163c61.309-41.391,873.662-529.797,477.332-285.597
		C1026.368,1237.195,814.446,1368.079,723.705,1415.163z"/>
	<path fill="#9913E6" d="M793.105,1547.51c29.039,7.407,452.916-265.096,679.642-396.743
		c-177.761,115.299-583.273,354.808-640.753,404.236c-16.104,13.854-7.974,21.857-2.371,23.276
		c24.804,6.295,376.2-223.6,564.659-331.502c-340.874,227.859-576.186,349.915-523.84,363.204
		c17.08,4.338,226.027-132.7,387.204-226.989c-255.064,174.222-392.069,246.803-350.698,257.353
		c13.504,3.45,224.024-134.143,252.96-144.926c6.542,0.25,11.076-6.942,7.674-12.836c-5.897-10.213-16.824-3.83-85.196,37.279
		c253.14-166.915,267.124-176.28,259.466-189.543c-8.854-15.344-30.587-1.033-321.815,176.82
		c358.924-231.95,490.974-302.341,447.806-313.27c-15.388-3.89-95.643,43.658-341.299,194.626
		c-592.527,364.138,383.089-234.214,432.747-277.101c16.678-14.403,7.679-22.151,2.536-23.463
		c-27.109-6.955-448.649,265.592-681.166,398.878c214.838-138.473,743.65-449.557,770.606-488.937l-192.283,111.015
		C932.462,1439.552,742.767,1534.672,793.105,1547.51z"/>
	<path fill="#9913E6" d="M1206.481,1254.67l-454.229,262.249C787.641,1515.091,1100.755,1319.673,1206.481,1254.67z"/>
</g>
</svg>
