<svg version="1.2" baseProfile="tiny-ps" xmlns="http://www.w3.org/2000/svg" viewBox="0 0 64 80" width="64" height="80">
	<title>noun_Volunteer_3637517-svg</title>
	<style>
		tspan { white-space:pre }
		.shp0 { fill: #000000 } 
	</style>
	<g id="Layer">
		<path id="Layer" class="shp0" d="M41 14C41 13.45 40.55 13 40 13L39 13L39 15L40 15C40.55 15 41 14.55 41 14Z" />
		<path id="Layer" class="shp0" d="M29 36C29 35.45 28.55 35 28 35L27 35L27 37L28 37C28.55 37 29 36.55 29 36Z" />
		<path id="Layer" class="shp0" d="M34.83 24.43L34.46 22.95C34.3 22.97 34.16 23 34 23L30 23C29.84 23 29.7 22.97 29.54 22.95L29.17 24.43C30.96 25.16 33.03 25.16 34.83 24.43Z" />
		<path id="Layer" class="shp0" d="M25 40L25 35L23.61 35C21.27 35 19.01 34.38 17.02 33.19L15 34.53L15 40C15 41.65 16.35 43 18 43L22 43C23.65 43 25 41.65 25 40Z" />
		<path id="Layer" class="shp0" d="M32.01 49.82C33.14 48.79 34.4 47.94 35.76 47.29C33.58 45.94 31.92 43.88 31.08 41.39L30.78 40.8L31.29 40.29C32.38 39.21 33 37.71 33 36.17L33 34C33 30.75 34.73 27.91 37.32 26.33C36.93 26.22 36.53 26.12 36.13 26.05C34.85 26.67 33.42 27 32 27C31.27 27 30.53 26.91 29.81 26.74C30.56 27.95 31 29.36 31 30.88C31 31.73 30.86 32.57 30.59 33.38L30.34 34.14C30.75 34.66 31 35.3 31 36C31 37.65 29.65 39 28 39L27 39L27 40C27 41.89 25.93 43.52 24.37 44.37L24.81 46.14C27.58 46.72 30.03 48.02 32.01 49.82Z" />
		<path id="Layer" class="shp0" d="M35 34L35 36.17C35 38.02 34.33 39.82 33.15 41.23C34.1 43.58 35.96 45.42 38.33 46.35C38.62 46.27 38.9 46.2 39.19 46.14L39.82 43.6C38.11 42.32 37 40.29 37 38L37 36.83C37 34.77 37.84 32.75 39.29 31.29L39.8 30.78L40.45 31.11C43.01 32.39 45.75 33.28 48.58 33.75L51 34.15L51 38C51 40.29 49.89 42.32 48.18 43.6L48.81 46.14C49.1 46.2 49.38 46.28 49.65 46.35C52.04 45.42 53.89 43.58 54.84 41.21C53.67 39.81 53 38.01 53 36.17L53 34C53 30.14 49.86 27 46 27L42 27C38.14 27 35 30.14 35 34Z" />
		<path id="Layer" class="shp0" d="M52.22 47.3C53.78 48.03 55.2 49.03 56.43 50.25L56.96 44.38L56.12 43.54C56.08 43.49 56.04 43.44 56 43.39C55.08 44.99 53.79 46.33 52.22 47.3Z" />
		<path id="Layer" class="shp0" d="M41.63 44.58L41.17 46.43C42.96 47.16 45.03 47.16 46.83 46.43L46.36 44.58C45.63 44.85 44.83 45 44 45C43.17 45 42.38 44.85 41.63 44.58Z" />
		<path id="Layer" class="shp0" d="M49 38L49 35.85L48.25 35.72C45.47 35.26 42.78 34.42 40.24 33.23C39.45 34.25 39 35.53 39 36.83L39 38C39 40.76 41.24 43 44 43C46.76 43 49 40.76 49 38Z" />
		<path id="Layer" class="shp0" d="M18 45C17.84 45 17.7 44.97 17.54 44.95L17.17 46.43C18.97 47.16 21.03 47.16 22.83 46.43L22.46 44.95C22.3 44.97 22.16 45 22 45L18 45Z" />
		<path id="Layer" class="shp0" d="M4.96 43.62L6.46 42.12C6.8 41.78 7 41.31 7 40.83C7 39.82 6.18 39 5.17 39C3.98 39 3 39.98 3 41.17L3 47L5.27 47L4.96 43.62Z" />
		<path id="Layer" class="shp0" d="M34.99 61C34.92 54.61 30.39 49.23 24.13 48.05C22.84 48.67 21.42 49 20 49C18.58 49 17.16 48.67 15.88 48.05C12.66 48.66 9.83 50.39 7.82 52.98L5.97 55.62L5.45 49L3 49L3 57.09C3 58.7 4.3 60 5.91 60C6.88 60 7.79 59.52 8.33 58.7L11 55.29L11 61L19 61L14.83 56.83C14.3 56.3 14 55.58 14 54.83C14 53.27 15.27 52 16.83 52C17.58 52 18.3 52.3 18.83 52.83L20 54L21.17 52.83C21.7 52.3 22.42 52 23.17 52C24.73 52 26 53.27 26 54.83C26 55.58 25.7 56.3 25.17 56.83L21 61L29 61L29 55L31 55L31 61L34.99 61Z" />
		<path id="Layer" class="shp0" d="M58.83 39C57.82 39 57 39.82 57 40.83C57 41.31 57.2 41.78 57.53 42.12L59.04 43.62L58.73 47L61 47L61 41.17C61 39.98 60.02 39 58.83 39Z" />
		<path id="Layer" class="shp0" d="M12 37L13 37L13 35L12 35C11.45 35 11 35.45 11 36C11 36.55 11.45 37 12 37Z" />
		<path id="Layer" class="shp0" d="M58.55 49L58 55.09L56.18 52.98C54.17 50.39 51.34 48.66 48.12 48.05C46.84 48.67 45.42 49 44 49C42.58 49 41.16 48.67 39.87 48.05C37.43 48.51 35.22 49.61 33.39 51.27C35.62 53.91 36.95 57.31 36.99 61L43 61L38.83 56.83C38.3 56.3 38 55.58 38 54.83C38 53.27 39.27 52 40.83 52C41.58 52 42.3 52.3 42.83 52.83L44 54L45.17 52.83C45.7 52.3 46.42 52 47.17 52C48.73 52 50 53.27 50 54.83C50 55.58 49.7 56.3 49.17 56.83L45 61L53 61L53 55L53.69 56L55.67 58.7C56.21 59.52 57.12 60 58.09 60C59.7 60 61 58.7 61 57.09L61 49L58.55 49Z" />
		<path id="Layer" class="shp0" d="M24 15L25 15L25 13L24 13C23.45 13 23 13.45 23 14C23 14.55 23.45 15 24 15Z" />
		<path id="Layer" class="shp0" d="M11.54 33.05C11.69 33.02 11.84 33 12 33L13.7 33L17 30.8L17.55 31.17C19.35 32.37 21.45 33 23.61 33L26 33L27 33L28 33C28.2 33 28.4 33.02 28.59 33.06L28.7 32.74C28.9 32.14 29 31.52 29 30.88C29 27.64 26.36 25 23.12 25L18.61 25C16.68 25 14.9 25.95 13.83 27.55L13.64 27.84L12.75 28.14C11.7 28.49 11 29.46 11 30.56C11 30.77 11.03 30.98 11.08 31.18L11.54 33.05Z" />
		<path id="Layer" fill-rule="evenodd" class="shp0" d="M23.08 9.18C23.02 8.98 23 8.77 23 8.56C23 7.46 23.7 6.49 24.75 6.14L25.64 5.84L25.83 5.55C26.9 3.96 28.68 3 30.6 3L35.12 3C38.36 3 41 5.64 41 8.88C41 9.52 40.9 10.14 40.7 10.74L40.59 11.06C40.4 11.02 40.2 11 40 11L37 11L37 18C37 19.65 35.65 21 34 21L30 21C28.35 21 27 19.65 27 18L27 11L24 11C23.84 11 23.69 11.02 23.54 11.05L23.08 9.18ZM32.11 8.45L34.11 12.45L35.9 11.55L33.9 7.55L32.11 8.45ZM28.11 8.45L30.11 12.45L31.89 11.55L29.89 7.55L28.11 8.45Z" />
		<path id="Layer" class="shp0" d="M14.96 13.62L16.46 12.12C16.8 11.78 17 11.31 17 10.83C17 9.82 16.18 9 15.17 9C13.97 9 13 9.97 13 11.17L13 25.41C13.8 24.56 14.78 23.92 15.86 23.51L14.96 13.62Z" />
	</g>
</svg>